<?xml version="1.0" standalone="no"?>
<!DOCTYPE svg PUBLIC "-//W3C//DTD SVG 20010904//EN"
 "http://www.w3.org/TR/2001/REC-SVG-20010904/DTD/svg10.dtd">
<svg version="1.0" xmlns="http://www.w3.org/2000/svg"
 width="500.000000pt" height="243.000000pt" viewBox="0 0 500.000000 243.000000"
 preserveAspectRatio="xMidYMid meet">
<metadata>
Created by potrace 1.13, written by Peter Selinger 2001-2015
</metadata>
<g transform="translate(0.000000,243.000000) scale(0.100000,-0.100000)"
fill="#8b008b" stroke="none">
<path d="M0 1215 l0 -1215 2500 0 2500 0 0 1215 0 1215 -2500 0 -2500 0 0
-1215z m2133 478 c4 -7 -13 -114 -28 -179 -4 -20 0 -21 108 -27 184 -10 256
-45 272 -130 5 -27 -42 -312 -72 -434 -5 -22 -10 -23 -94 -23 -49 0 -89 3 -89
8 0 4 16 89 36 189 22 108 34 192 30 208 -9 35 -41 45 -140 45 l-84 0 -43
-225 -43 -225 -88 0 c-52 0 -88 4 -88 10 0 21 149 770 155 780 7 11 161 14
168 3z m1805 -70 l3 -71 -238 -326 -238 -326 -107 0 c-60 0 -108 2 -108 5 0 3
108 148 240 323 l240 317 -250 3 -250 2 0 75 0 75 353 -2 352 -3 3 -72z
m-2266 -157 c67 -25 114 -75 134 -142 41 -142 -43 -322 -184 -391 -53 -26 -68
-28 -199 -32 -121 -3 -143 -6 -147 -20 -5 -15 -36 -179 -36 -187 0 -2 -40 -4
-90 -4 -49 0 -90 3 -90 7 0 17 152 778 157 786 3 5 91 7 207 4 155 -3 212 -8
248 -21z m1371 3 c101 -34 153 -120 145 -242 -6 -92 -39 -166 -101 -229 -79
-79 -119 -92 -288 -96 l-145 -4 -18 -104 -19 -104 -88 0 c-69 0 -89 3 -89 14
0 27 141 742 151 765 l10 23 202 -5 c126 -3 216 -10 240 -18z"/>
<path d="M1365 1338 c-7 -21 -55 -277 -55 -294 0 -14 13 -16 98 -12 80 3 104
8 135 27 47 29 78 87 84 161 7 68 -6 97 -52 116 -44 18 -204 19 -210 2z"/>
<path d="M2715 1203 c-15 -82 -30 -154 -32 -160 -4 -10 15 -13 73 -13 165 0
230 48 248 186 15 103 -25 134 -172 134 l-89 0 -28 -147z"/>
</g>
</svg>
